<svg width="20" height="20" viewBox="0 0 20 20" fill="none" xmlns="http://www.w3.org/2000/svg">
<path opacity="0.5" fill-rule="evenodd" clip-rule="evenodd" d="M2.14556 12.3013C2.59911 12.7522 2.5991 13.4833 2.14554 13.9342L2.12231 13.9573C1.66874 14.4083 0.93337 14.4083 0.479813 13.9573C0.0262542 13.5064 0.0262612 12.7752 0.479829 12.3243L0.503055 12.3012C0.956625 11.8502 1.692 11.8503 2.14556 12.3013Z" fill="#FFECEC"/>
<path opacity="0.7" fill-rule="evenodd" clip-rule="evenodd" d="M7.6056 12.649C8.05835 13.1008 8.057 13.8319 7.6026 14.282L4.38548 17.4691C3.9311 17.9192 3.19573 17.9179 2.74298 17.4661C2.29024 17.0144 2.29157 16.2832 2.74595 15.8331L5.9631 12.6461C6.4175 12.196 7.15285 12.1973 7.6056 12.649Z" fill="#FFECEC"/>
<path opacity="0.5" fill-rule="evenodd" clip-rule="evenodd" d="M11.9716 18.1353C12.3274 17.6047 13.0485 17.4613 13.5822 17.8151L13.6519 17.8612C14.1856 18.215 14.3298 18.9319 13.974 19.4625C13.6182 19.9932 12.8971 20.1366 12.3634 19.7828L12.2937 19.7366C11.76 19.3829 11.6158 18.6659 11.9716 18.1353Z" fill="#FFECEC"/>
<path opacity="0.7" fill-rule="evenodd" clip-rule="evenodd" d="M19.6364 12.2319C20.09 12.6829 20.09 13.414 19.6364 13.8649L18.0569 15.4353C17.6033 15.8863 16.8679 15.8863 16.4144 15.4353C15.9608 14.9844 15.9608 14.2533 16.4144 13.8023L17.9939 12.2319C18.4475 11.781 19.1828 11.781 19.6364 12.2319Z" fill="#FFECEC"/>
<path fill-rule="evenodd" clip-rule="evenodd" d="M19.6598 6.42365C20.1134 6.8746 20.1134 7.60575 19.6598 8.05665L7.98755 19.6616C7.534 20.1125 6.7986 20.1125 6.34505 19.6616C5.8915 19.2106 5.8915 18.4795 6.34505 18.0286L18.0173 6.42365C18.4709 5.9727 19.2062 5.9727 19.6598 6.42365Z" fill="#FFECEC"/>
<path fill-rule="evenodd" clip-rule="evenodd" d="M17.4525 2.85566C17.9061 3.3066 17.9061 4.03775 17.4525 4.4887L10.7395 11.1629C10.2859 11.6139 9.55055 11.6139 9.097 11.1629C8.64345 10.712 8.64345 9.98085 9.097 9.5299L15.81 2.85566C16.2636 2.40472 16.9989 2.40472 17.4525 2.85566Z" fill="#FFECEC"/>
<path fill-rule="evenodd" clip-rule="evenodd" d="M13.9093 0.591809C14.3632 1.04245 14.3637 1.77357 13.9104 2.22482L5.28105 10.8159C4.82781 11.2671 4.09244 11.2676 3.63857 10.817C3.18471 10.3663 3.18421 9.63525 3.63747 9.184L12.2668 0.592909C12.7201 0.141659 13.4554 0.141169 13.9093 0.591809Z" fill="#FFECEC"/>
<path opacity="0.7" fill-rule="evenodd" clip-rule="evenodd" d="M5.3638 3.34205C5.8166 3.7938 5.81535 4.5249 5.361 4.97505L1.98125 8.32375C1.52691 8.7739 0.79154 8.77265 0.33876 8.32095C-0.114022 7.8692 -0.112756 7.1381 0.341587 6.6879L3.72132 3.33925C4.17566 2.88908 4.91104 2.89033 5.3638 3.34205Z" fill="#FFECEC"/>
<path opacity="0.5" fill-rule="evenodd" clip-rule="evenodd" d="M7.43391 0.00012207C8.07531 0.00012207 8.59531 0.517107 8.59531 1.15484V1.27031C8.59531 1.90804 8.07531 2.42503 7.43391 2.42503C6.79246 2.42503 6.27246 1.90804 6.27246 1.27031V1.15484C6.27246 0.517107 6.79246 0.00012207 7.43391 0.00012207Z" fill="#FFECEC"/>
</svg>
