<svg width="546" height="6" viewBox="0 0 546 6" fill="none" xmlns="http://www.w3.org/2000/svg">
<path d="M1.21676 2.43351C2.19016 2.43351 2.67686 2.79854 3.40692 3.40692C4.25865 4.13697 5.23205 5.11037 7.17886 5.11037C9.12567 5.11037 10.0991 4.13697 10.9508 3.40692C11.6809 2.79854 12.0459 2.43351 13.141 2.43351C14.1144 2.43351 14.6011 2.79854 15.3311 3.40692C16.1829 4.13697 17.1563 5.11037 19.1031 5.11037C21.0499 5.11037 22.0233 4.13697 22.875 3.40692C23.6051 2.79854 23.9701 2.43351 25.0652 2.43351C26.0386 2.43351 26.5253 2.79854 27.2553 3.40692C28.1071 4.13697 29.0805 5.11037 31.0273 5.11037C32.9741 5.11037 33.9475 4.13697 34.7992 3.40692C35.5293 2.79854 35.8943 2.43351 36.9894 2.43351C37.9628 2.43351 38.4495 2.79854 39.1796 3.40692C40.0313 4.13697 41.0047 5.11037 42.9515 5.11037C44.8983 5.11037 45.8717 4.13697 46.7234 3.40692C47.4535 2.79854 47.8185 2.43351 48.9136 2.43351C49.887 2.43351 50.3737 2.79854 51.1038 3.40692C51.9555 4.13697 52.9289 5.11037 54.8757 5.11037C56.8225 5.11037 57.7959 4.13697 58.6477 3.40692C59.3777 2.79854 59.7427 2.43351 60.8378 2.43351C61.9329 2.43351 62.2979 2.79854 63.028 3.40692C63.8797 4.13697 64.8531 5.11037 66.7999 5.11037C68.7467 5.11037 69.7201 4.13697 70.5719 3.40692C71.3019 2.79854 71.667 2.43351 72.762 2.43351C73.7354 2.43351 74.2221 2.79854 74.9522 3.40692C75.8039 4.13697 76.7773 5.11037 78.7241 5.11037C80.6709 5.11037 81.6444 4.13697 82.4961 3.40692C83.2261 2.79854 83.5912 2.43351 84.6862 2.43351C85.6597 2.43351 86.1464 2.79854 86.8764 3.40692C87.7281 4.13697 88.7015 5.11037 90.6484 5.11037C92.5952 5.11037 93.5686 4.13697 94.4203 3.40692C95.1504 2.79854 95.5154 2.43351 96.6105 2.43351C97.7055 2.43351 98.0706 2.79854 98.8006 3.40692C99.6524 4.13697 100.626 5.11037 102.573 5.11037C103.303 5.11037 103.789 4.62367 103.789 3.89362C103.789 3.16356 103.303 2.67686 102.573 2.67686C101.599 2.67686 101.112 2.31183 100.382 1.70346C99.5307 0.973402 98.5573 0 96.6105 0C94.6637 0 93.6902 0.973402 92.8385 1.70346C92.1085 2.31183 91.7434 2.67686 90.6484 2.67686C89.675 2.67686 89.1882 2.31183 88.4582 1.70346C87.6065 0.973402 86.6331 0 84.6862 0C82.7394 0 81.766 0.973402 80.9143 1.70346C80.1843 2.31183 79.8192 2.67686 78.7241 2.67686C77.6291 2.67686 77.264 2.31183 76.534 1.70346C75.6823 0.973402 74.7088 0 72.762 0C70.8152 0 69.8418 0.973402 68.9901 1.70346C68.26 2.31183 67.895 2.67686 66.7999 2.67686C65.7048 2.67686 65.3398 2.31183 64.6098 1.70346C63.758 0.973402 62.7846 0 60.8378 0C58.891 0 57.9176 0.973402 57.0659 1.70346C56.3358 2.31183 55.9708 2.67686 54.8757 2.67686C53.9023 2.67686 53.4156 2.31183 52.6856 1.70346C51.8338 0.973402 50.8604 0 48.9136 0C46.9668 0 45.9934 0.973402 45.1417 1.70346C44.4116 2.31183 44.0466 2.67686 42.9515 2.67686C41.9781 2.67686 41.4914 2.31183 40.7613 1.70346C39.9096 0.973402 38.9362 0 36.9894 0C35.0426 0 34.0692 0.973402 33.2175 1.70346C32.4874 2.31183 32.1224 2.67686 31.0273 2.67686C30.0539 2.67686 29.5672 2.31183 28.8371 1.70346C27.9854 0.973402 27.012 0 25.0652 0C23.1184 0 22.145 0.973402 21.2932 1.70346C20.5632 2.31183 20.1982 2.67686 19.1031 2.67686C18.1297 2.67686 17.643 2.31183 16.9129 1.70346C16.0612 0.973402 15.0878 0 13.141 0C11.1942 0 10.2208 0.973402 9.36903 1.70346C8.63897 2.31183 8.27394 2.67686 7.17886 2.67686C6.08378 2.67686 5.71876 2.31183 4.9887 1.70346C4.13697 0.973402 3.16357 0 1.21676 0C0.486702 0 0 0.486703 0 1.21676C0 1.94681 0.486702 2.43351 1.21676 2.43351Z" fill="#D6BE99"/>
<path d="M96.1235 2.43351C97.0969 2.43351 97.5836 2.79854 98.3137 3.40692C99.1654 4.13697 100.139 5.11037 102.086 5.11037C104.032 5.11037 105.006 4.13697 105.858 3.40692C106.588 2.79854 106.953 2.43351 108.048 2.43351C109.021 2.43351 109.508 2.79854 110.238 3.40692C111.09 4.13697 112.063 5.11037 114.01 5.11037C115.957 5.11037 116.93 4.13697 117.782 3.40692C118.512 2.79854 118.877 2.43351 119.972 2.43351C120.945 2.43351 121.432 2.79854 122.162 3.40692C123.014 4.13697 123.987 5.11037 125.934 5.11037C127.881 5.11037 128.854 4.13697 129.706 3.40692C130.436 2.79854 130.801 2.43351 131.896 2.43351C132.87 2.43351 133.356 2.79854 134.086 3.40692C134.938 4.13697 135.911 5.11037 137.858 5.11037C139.805 5.11037 140.778 4.13697 141.63 3.40692C142.36 2.79854 142.725 2.43351 143.82 2.43351C144.794 2.43351 145.28 2.79854 146.011 3.40692C146.862 4.13697 147.836 5.11037 149.782 5.11037C151.729 5.11037 152.703 4.13697 153.554 3.40692C154.284 2.79854 154.649 2.43351 155.745 2.43351C156.84 2.43351 157.205 2.79854 157.935 3.40692C158.786 4.13697 159.76 5.11037 161.707 5.11037C163.653 5.11037 164.627 4.13697 165.479 3.40692C166.209 2.79854 166.574 2.43351 167.669 2.43351C168.642 2.43351 169.129 2.79854 169.859 3.40692C170.711 4.13697 171.684 5.11037 173.631 5.11037C175.578 5.11037 176.551 4.13697 177.403 3.40692C178.133 2.79854 178.498 2.43351 179.593 2.43351C180.566 2.43351 181.053 2.79854 181.783 3.40692C182.635 4.13697 183.608 5.11037 185.555 5.11037C187.502 5.11037 188.475 4.13697 189.327 3.40692C190.057 2.79854 190.422 2.43351 191.517 2.43351C192.612 2.43351 192.977 2.79854 193.707 3.40692C194.559 4.13697 195.532 5.11037 197.479 5.11037C198.209 5.11037 198.696 4.62367 198.696 3.89362C198.696 3.16356 198.209 2.67686 197.479 2.67686C196.506 2.67686 196.019 2.31183 195.289 1.70346C194.437 0.973402 193.464 0 191.517 0C189.57 0 188.597 0.973402 187.745 1.70346C187.015 2.31183 186.65 2.67686 185.555 2.67686C184.582 2.67686 184.095 2.31183 183.365 1.70346C182.513 0.973402 181.54 0 179.593 0C177.646 0 176.673 0.973402 175.821 1.70346C175.091 2.31183 174.726 2.67686 173.631 2.67686C172.536 2.67686 172.171 2.31183 171.441 1.70346C170.589 0.973402 169.616 0 167.669 0C165.722 0 164.749 0.973402 163.897 1.70346C163.167 2.31183 162.802 2.67686 161.707 2.67686C160.612 2.67686 160.247 2.31183 159.517 1.70346C158.665 0.973402 157.691 0 155.745 0C153.798 0 152.824 0.973402 151.973 1.70346C151.243 2.31183 150.878 2.67686 149.782 2.67686C148.809 2.67686 148.322 2.31183 147.592 1.70346C146.741 0.973402 145.767 0 143.82 0C141.874 0 140.9 0.973402 140.048 1.70346C139.318 2.31183 138.953 2.67686 137.858 2.67686C136.885 2.67686 136.398 2.31183 135.668 1.70346C134.816 0.973402 133.843 0 131.896 0C129.949 0 128.976 0.973402 128.124 1.70346C127.394 2.31183 127.029 2.67686 125.934 2.67686C124.961 2.67686 124.474 2.31183 123.744 1.70346C122.892 0.973402 121.919 0 119.972 0C118.025 0 117.052 0.973402 116.2 1.70346C115.47 2.31183 115.105 2.67686 114.01 2.67686C113.036 2.67686 112.55 2.31183 111.82 1.70346C110.968 0.973402 109.995 0 108.048 0C106.101 0 105.127 0.973402 104.276 1.70346C103.546 2.31183 103.181 2.67686 102.086 2.67686C100.991 2.67686 100.625 2.31183 99.8954 1.70346C99.0437 0.973402 98.0703 0 96.1235 0C95.3934 0 94.9067 0.486703 94.9067 1.21676C94.9067 1.94681 95.3934 2.43351 96.1235 2.43351Z" fill="#D6BE99"/>
<path d="M192.248 2.43351C193.221 2.43351 193.708 2.79854 194.438 3.40692C195.289 4.13697 196.263 5.11037 198.21 5.11037C200.156 5.11037 201.13 4.13697 201.982 3.40692C202.712 2.79854 203.077 2.43351 204.172 2.43351C205.145 2.43351 205.632 2.79854 206.362 3.40692C207.214 4.13697 208.187 5.11037 210.134 5.11037C212.081 5.11037 213.054 4.13697 213.906 3.40692C214.636 2.79854 215.001 2.43351 216.096 2.43351C217.069 2.43351 217.556 2.79854 218.286 3.40692C219.138 4.13697 220.111 5.11037 222.058 5.11037C224.005 5.11037 224.978 4.13697 225.83 3.40692C226.56 2.79854 226.925 2.43351 228.02 2.43351C228.994 2.43351 229.48 2.79854 230.21 3.40692C231.062 4.13697 232.035 5.11037 233.982 5.11037C235.929 5.11037 236.902 4.13697 237.754 3.40692C238.484 2.79854 238.849 2.43351 239.944 2.43351C240.918 2.43351 241.404 2.79854 242.135 3.40692C242.986 4.13697 243.96 5.11037 245.906 5.11037C247.853 5.11037 248.827 4.13697 249.678 3.40692C250.408 2.79854 250.774 2.43351 251.869 2.43351C252.964 2.43351 253.329 2.79854 254.059 3.40692C254.91 4.13697 255.884 5.11037 257.831 5.11037C259.777 5.11037 260.751 4.13697 261.603 3.40692C262.333 2.79854 262.698 2.43351 263.793 2.43351C264.766 2.43351 265.253 2.79854 265.983 3.40692C266.835 4.13697 267.808 5.11037 269.755 5.11037C271.702 5.11037 272.675 4.13697 273.527 3.40692C274.257 2.79854 274.622 2.43351 275.717 2.43351C276.69 2.43351 277.177 2.79854 277.907 3.40692C278.759 4.13697 279.732 5.11037 281.679 5.11037C283.626 5.11037 284.599 4.13697 285.451 3.40692C286.181 2.79854 286.546 2.43351 287.641 2.43351C288.736 2.43351 289.101 2.79854 289.831 3.40692C290.683 4.13697 291.657 5.11037 293.603 5.11037C294.333 5.11037 294.82 4.62367 294.82 3.89362C294.82 3.16356 294.333 2.67686 293.603 2.67686C292.63 2.67686 292.143 2.31183 291.413 1.70346C290.561 0.973402 289.588 0 287.641 0C285.694 0 284.721 0.973402 283.869 1.70346C283.139 2.31183 282.774 2.67686 281.679 2.67686C280.706 2.67686 280.219 2.31183 279.489 1.70346C278.637 0.973402 277.664 0 275.717 0C273.77 0 272.797 0.973402 271.945 1.70346C271.215 2.31183 270.85 2.67686 269.755 2.67686C268.66 2.67686 268.295 2.31183 267.565 1.70346C266.713 0.973402 265.74 0 263.793 0C261.846 0 260.873 0.973402 260.021 1.70346C259.291 2.31183 258.926 2.67686 257.831 2.67686C256.736 2.67686 256.371 2.31183 255.641 1.70346C254.789 0.973402 253.815 0 251.869 0C249.922 0 248.948 0.973402 248.097 1.70346C247.367 2.31183 247.002 2.67686 245.906 2.67686C244.933 2.67686 244.446 2.31183 243.716 1.70346C242.865 0.973402 241.891 0 239.944 0C237.998 0 237.024 0.973402 236.172 1.70346C235.442 2.31183 235.077 2.67686 233.982 2.67686C233.009 2.67686 232.522 2.31183 231.792 1.70346C230.94 0.973402 229.967 0 228.02 0C226.073 0 225.1 0.973402 224.248 1.70346C223.518 2.31183 223.153 2.67686 222.058 2.67686C221.085 2.67686 220.598 2.31183 219.868 1.70346C219.016 0.973402 218.043 0 216.096 0C214.149 0 213.176 0.973402 212.324 1.70346C211.594 2.31183 211.229 2.67686 210.134 2.67686C209.16 2.67686 208.674 2.31183 207.944 1.70346C207.092 0.973402 206.119 0 204.172 0C202.225 0 201.252 0.973402 200.4 1.70346C199.67 2.31183 199.305 2.67686 198.21 2.67686C197.115 2.67686 196.75 2.31183 196.019 1.70346C195.168 0.973402 194.194 0 192.248 0C191.517 0 191.031 0.486703 191.031 1.21676C191.031 1.94681 191.517 2.43351 192.248 2.43351Z" fill="#D6BE99"/>
<path d="M276.204 2.43351C277.177 2.43351 277.664 2.79854 278.394 3.40692C279.245 4.13697 280.219 5.11037 282.166 5.11037C284.112 5.11037 285.086 4.13697 285.938 3.40692C286.668 2.79854 287.033 2.43351 288.128 2.43351C289.101 2.43351 289.588 2.79854 290.318 3.40692C291.17 4.13697 292.143 5.11037 294.09 5.11037C296.037 5.11037 297.01 4.13697 297.862 3.40692C298.592 2.79854 298.957 2.43351 300.052 2.43351C301.025 2.43351 301.512 2.79854 302.242 3.40692C303.094 4.13697 304.067 5.11037 306.014 5.11037C307.961 5.11037 308.934 4.13697 309.786 3.40692C310.516 2.79854 310.881 2.43351 311.976 2.43351C312.95 2.43351 313.436 2.79854 314.166 3.40692C315.018 4.13697 315.992 5.11037 317.938 5.11037C319.885 5.11037 320.859 4.13697 321.71 3.40692C322.44 2.79854 322.805 2.43351 323.9 2.43351C324.874 2.43351 325.361 2.79854 326.091 3.40692C326.942 4.13697 327.916 5.11037 329.863 5.11037C331.809 5.11037 332.783 4.13697 333.634 3.40692C334.365 2.79854 334.73 2.43351 335.825 2.43351C336.92 2.43351 337.285 2.79854 338.015 3.40692C338.867 4.13697 339.84 5.11037 341.787 5.11037C343.734 5.11037 344.707 4.13697 345.559 3.40692C346.289 2.79854 346.654 2.43351 347.749 2.43351C348.722 2.43351 349.209 2.79854 349.939 3.40692C350.791 4.13697 351.764 5.11037 353.711 5.11037C355.658 5.11037 356.631 4.13697 357.483 3.40692C358.213 2.79854 358.578 2.43351 359.673 2.43351C360.646 2.43351 361.133 2.79854 361.863 3.40692C362.715 4.13697 363.688 5.11037 365.635 5.11037C367.582 5.11037 368.555 4.13697 369.407 3.40692C370.137 2.79854 370.502 2.43351 371.597 2.43351C372.692 2.43351 373.057 2.79854 373.787 3.40692C374.639 4.13697 375.613 5.11037 377.559 5.11037C378.289 5.11037 378.776 4.62367 378.776 3.89362C378.776 3.16356 378.289 2.67686 377.559 2.67686C376.586 2.67686 376.099 2.31183 375.369 1.70346C374.517 0.973402 373.544 0 371.597 0C369.65 0 368.677 0.973402 367.825 1.70346C367.095 2.31183 366.73 2.67686 365.635 2.67686C364.662 2.67686 364.175 2.31183 363.445 1.70346C362.593 0.973402 361.62 0 359.673 0C357.726 0 356.753 0.973402 355.901 1.70346C355.171 2.31183 354.806 2.67686 353.711 2.67686C352.616 2.67686 352.251 2.31183 351.521 1.70346C350.669 0.973402 349.696 0 347.749 0C345.802 0 344.829 0.973402 343.977 1.70346C343.247 2.31183 342.882 2.67686 341.787 2.67686C340.692 2.67686 340.327 2.31183 339.597 1.70346C338.745 0.973402 337.771 0 335.825 0C333.878 0 332.904 0.973402 332.053 1.70346C331.323 2.31183 330.958 2.67686 329.863 2.67686C328.889 2.67686 328.402 2.31183 327.672 1.70346C326.821 0.973402 325.847 0 323.9 0C321.954 0 320.98 0.973402 320.128 1.70346C319.398 2.31183 319.033 2.67686 317.938 2.67686C316.965 2.67686 316.478 2.31183 315.748 1.70346C314.896 0.973402 313.923 0 311.976 0C310.029 0 309.056 0.973402 308.204 1.70346C307.474 2.31183 307.109 2.67686 306.014 2.67686C305.041 2.67686 304.554 2.31183 303.824 1.70346C302.972 0.973402 301.999 0 300.052 0C298.105 0 297.132 0.973402 296.28 1.70346C295.55 2.31183 295.185 2.67686 294.09 2.67686C293.116 2.67686 292.63 2.31183 291.9 1.70346C291.048 0.973402 290.075 0 288.128 0C286.181 0 285.208 0.973402 284.356 1.70346C283.626 2.31183 283.261 2.67686 282.166 2.67686C281.071 2.67686 280.706 2.31183 279.976 1.70346C279.124 0.973402 278.15 0 276.204 0C275.474 0 274.987 0.486703 274.987 1.21676C274.987 1.94681 275.474 2.43351 276.204 2.43351Z" fill="#D6BE99"/>
<path d="M358.943 2.43351C359.917 2.43351 360.403 2.79854 361.133 3.40692C361.985 4.13697 362.959 5.11037 364.905 5.11037C366.852 5.11037 367.826 4.13697 368.677 3.40692C369.407 2.79854 369.772 2.43351 370.868 2.43351C371.841 2.43351 372.328 2.79854 373.058 3.40692C373.909 4.13697 374.883 5.11037 376.83 5.11037C378.776 5.11037 379.75 4.13697 380.602 3.40692C381.332 2.79854 381.697 2.43351 382.792 2.43351C383.765 2.43351 384.252 2.79854 384.982 3.40692C385.834 4.13697 386.807 5.11037 388.754 5.11037C390.701 5.11037 391.674 4.13697 392.526 3.40692C393.256 2.79854 393.621 2.43351 394.716 2.43351C395.689 2.43351 396.176 2.79854 396.906 3.40692C397.758 4.13697 398.731 5.11037 400.678 5.11037C402.625 5.11037 403.598 4.13697 404.45 3.40692C405.18 2.79854 405.545 2.43351 406.64 2.43351C407.614 2.43351 408.1 2.79854 408.83 3.40692C409.682 4.13697 410.655 5.11037 412.602 5.11037C414.549 5.11037 415.522 4.13697 416.374 3.40692C417.104 2.79854 417.469 2.43351 418.564 2.43351C419.659 2.43351 420.024 2.79854 420.755 3.40692C421.606 4.13697 422.58 5.11037 424.526 5.11037C426.473 5.11037 427.447 4.13697 428.298 3.40692C429.028 2.79854 429.394 2.43351 430.489 2.43351C431.462 2.43351 431.949 2.79854 432.679 3.40692C433.53 4.13697 434.504 5.11037 436.451 5.11037C438.398 5.11037 439.371 4.13697 440.223 3.40692C440.953 2.79854 441.318 2.43351 442.413 2.43351C443.386 2.43351 443.873 2.79854 444.603 3.40692C445.455 4.13697 446.428 5.11037 448.375 5.11037C450.322 5.11037 451.295 4.13697 452.147 3.40692C452.877 2.79854 453.242 2.43351 454.337 2.43351C455.432 2.43351 455.797 2.79854 456.527 3.40692C457.379 4.13697 458.352 5.11037 460.299 5.11037C461.029 5.11037 461.516 4.62367 461.516 3.89362C461.516 3.16356 461.029 2.67686 460.299 2.67686C459.326 2.67686 458.839 2.31183 458.109 1.70346C457.257 0.973402 456.284 0 454.337 0C452.39 0 451.417 0.973402 450.565 1.70346C449.835 2.31183 449.47 2.67686 448.375 2.67686C447.402 2.67686 446.915 2.31183 446.185 1.70346C445.333 0.973402 444.36 0 442.413 0C440.466 0 439.493 0.973402 438.641 1.70346C437.911 2.31183 437.546 2.67686 436.451 2.67686C435.356 2.67686 434.991 2.31183 434.261 1.70346C433.409 0.973402 432.435 0 430.489 0C428.542 0 427.568 0.973402 426.717 1.70346C425.987 2.31183 425.622 2.67686 424.526 2.67686C423.431 2.67686 423.066 2.31183 422.336 1.70346C421.485 0.973402 420.511 0 418.564 0C416.618 0 415.644 0.973402 414.792 1.70346C414.062 2.31183 413.697 2.67686 412.602 2.67686C411.629 2.67686 411.142 2.31183 410.412 1.70346C409.56 0.973402 408.587 0 406.64 0C404.693 0 403.72 0.973402 402.868 1.70346C402.138 2.31183 401.773 2.67686 400.678 2.67686C399.705 2.67686 399.218 2.31183 398.488 1.70346C397.636 0.973402 396.663 0 394.716 0C392.769 0 391.796 0.973402 390.944 1.70346C390.214 2.31183 389.849 2.67686 388.754 2.67686C387.78 2.67686 387.294 2.31183 386.564 1.70346C385.712 0.973402 384.739 0 382.792 0C380.845 0 379.872 0.973402 379.02 1.70346C378.29 2.31183 377.925 2.67686 376.83 2.67686C375.856 2.67686 375.37 2.31183 374.639 1.70346C373.788 0.973402 372.814 0 370.868 0C368.921 0 367.947 0.973402 367.096 1.70346C366.366 2.31183 366.001 2.67686 364.905 2.67686C363.81 2.67686 363.445 2.31183 362.715 1.70346C361.864 0.973402 360.89 0 358.943 0C358.213 0 357.727 0.486703 357.727 1.21676C357.727 1.94681 358.213 2.43351 358.943 2.43351Z" fill="#D6BE99"/>
<path d="M442.899 2.43351C443.873 2.43351 444.359 2.79854 445.09 3.40692C445.941 4.13697 446.915 5.11037 448.861 5.11037C450.808 5.11037 451.782 4.13697 452.633 3.40692C453.363 2.79854 453.729 2.43351 454.824 2.43351C455.797 2.43351 456.284 2.79854 457.014 3.40692C457.865 4.13697 458.839 5.11037 460.786 5.11037C462.733 5.11037 463.706 4.13697 464.558 3.40692C465.288 2.79854 465.653 2.43351 466.748 2.43351C467.721 2.43351 468.208 2.79854 468.938 3.40692C469.79 4.13697 470.763 5.11037 472.71 5.11037C474.657 5.11037 475.63 4.13697 476.482 3.40692C477.212 2.79854 477.577 2.43351 478.672 2.43351C479.645 2.43351 480.132 2.79854 480.862 3.40692C481.714 4.13697 482.687 5.11037 484.634 5.11037C486.581 5.11037 487.554 4.13697 488.406 3.40692C489.136 2.79854 489.501 2.43351 490.596 2.43351C491.57 2.43351 492.056 2.79854 492.786 3.40692C493.638 4.13697 494.612 5.11037 496.558 5.11037C498.505 5.11037 499.479 4.13697 500.33 3.40692C501.06 2.79854 501.425 2.43351 502.52 2.43351C503.616 2.43351 503.981 2.79854 504.711 3.40692C505.562 4.13697 506.536 5.11037 508.483 5.11037C510.429 5.11037 511.403 4.13697 512.254 3.40692C512.985 2.79854 513.35 2.43351 514.445 2.43351C515.418 2.43351 515.905 2.79854 516.635 3.40692C517.487 4.13697 518.46 5.11037 520.407 5.11037C522.354 5.11037 523.327 4.13697 524.179 3.40692C524.909 2.79854 525.274 2.43351 526.369 2.43351C527.342 2.43351 527.829 2.79854 528.559 3.40692C529.411 4.13697 530.384 5.11037 532.331 5.11037C534.278 5.11037 535.251 4.13697 536.103 3.40692C536.833 2.79854 537.198 2.43351 538.293 2.43351C539.388 2.43351 539.753 2.79854 540.483 3.40692C541.335 4.13697 542.308 5.11037 544.255 5.11037C544.985 5.11037 545.472 4.62367 545.472 3.89362C545.472 3.16356 544.985 2.67686 544.255 2.67686C543.282 2.67686 542.795 2.31183 542.065 1.70346C541.213 0.973402 540.24 0 538.293 0C536.346 0 535.373 0.973402 534.521 1.70346C533.791 2.31183 533.426 2.67686 532.331 2.67686C531.358 2.67686 530.871 2.31183 530.141 1.70346C529.289 0.973402 528.316 0 526.369 0C524.422 0 523.449 0.973402 522.597 1.70346C521.867 2.31183 521.502 2.67686 520.407 2.67686C519.312 2.67686 518.947 2.31183 518.217 1.70346C517.365 0.973402 516.391 0 514.445 0C512.498 0 511.524 0.973402 510.673 1.70346C509.943 2.31183 509.578 2.67686 508.483 2.67686C507.387 2.67686 507.022 2.31183 506.292 1.70346C505.441 0.973402 504.467 0 502.52 0C500.574 0 499.6 0.973402 498.748 1.70346C498.018 2.31183 497.653 2.67686 496.558 2.67686C495.585 2.67686 495.098 2.31183 494.368 1.70346C493.516 0.973402 492.543 0 490.596 0C488.649 0 487.676 0.973402 486.824 1.70346C486.094 2.31183 485.729 2.67686 484.634 2.67686C483.661 2.67686 483.174 2.31183 482.444 1.70346C481.592 0.973402 480.619 0 478.672 0C476.725 0 475.752 0.973402 474.9 1.70346C474.17 2.31183 473.805 2.67686 472.71 2.67686C471.737 2.67686 471.25 2.31183 470.52 1.70346C469.668 0.973402 468.695 0 466.748 0C464.801 0 463.828 0.973402 462.976 1.70346C462.246 2.31183 461.881 2.67686 460.786 2.67686C459.812 2.67686 459.326 2.31183 458.596 1.70346C457.744 0.973402 456.77 0 454.824 0C452.877 0 451.903 0.973402 451.052 1.70346C450.322 2.31183 449.957 2.67686 448.861 2.67686C447.766 2.67686 447.401 2.31183 446.671 1.70346C445.82 0.973402 444.846 0 442.899 0C442.169 0 441.683 0.486703 441.683 1.21676C441.683 1.94681 442.169 2.43351 442.899 2.43351Z" fill="#D6BE99"/>
</svg>
